# xmcd CD database file
#
# Track frame offsets:
#	150
#	26559
#	59983
#	84693
#	110662
#	143996
#	172464
#
# Disc length: 2768 seconds
#
# Revision: 0
# Processed by: cddbd v1.5.2PL0 Copyright (c) Steve Scherf et al.
# Submitted via: Feurio! 1.68 - http://www.feurio.com
#
DISCID=6f0ace07
DTITLE=Lucinda Williams - Paradiso Nov 1 2006 Aud Mix 2
DYEAR=1900
DGENRE=
TTITLE0=??? - Real Live Bleeding Fingers and Broken Guitar Strings
TTITLE1=??? - Essence
TTITLE2=??? - Unsuffer Me
TTITLE3=??? - Disgusted
TTITLE4=??? - Joy
TTITLE5=??? - Where is My Love
TTITLE6=??? - Come to Me Baby
EXTD=
EXTT0=
EXTT1=
EXTT2=
EXTT3=
EXTT4=
EXTT5=
EXTT6=
PLAYORDER=
